# xmcd
#
# Track frame offsets:
# 150
# 17535
# 38763
# 56123
#
# Disc length: 1024 seconds
#
# Revision: 0
# Processed by: cddbd v1.5.1PL2 Copyright (c) Steve Scherf et al.
# Submitted via: plextools 2.32a
#
DISCID=2903fe04
DTITLE=童子‐Ｔ - MARK YOURSELF
DYEAR=2005
DGENRE=Rap
TTITLE0=童子‐Ｔ - MARK YOURSELF
TTITLE1=童子‐Ｔ - In-mall
TTITLE2=童子‐Ｔ - 不明なタイトル
TTITLE3=童子‐Ｔ - 不明なタイトル
EXTD=
EXTT0=
EXTT1=
EXTT2=
EXTT3=
PLAYORDER=
